<?xml version="1.0" ?><!DOCTYPE svg  PUBLIC '-//W3C//DTD SVG 1.1//EN'  'http://www.w3.org/Graphics/SVG/1.1/DTD/svg11.dtd'><svg height="42px" style="fill-rule:evenodd;clip-rule:evenodd;stroke-linejoin:round;stroke-miterlimit:2;" version="1.1" width="42px" xml:space="preserve" xmlns="http://www.w3.org/2000/svg" xmlns:serif="http://www.serif.com/" xmlns:xlink="http://www.w3.org/1999/xlink"><path d="M20,5.8c-7.61,0.494 -13.705,6.588 -14.2,14.2l-1.8,0c-0.552,-0 -1,0.448 -1,1c-0,0.552 0.448,1 1,1l1.8,0c0.494,7.61 6.588,13.705 14.2,14.2l0,1.8c0,0.552 0.448,1 1,1c0.552,-0 1,-0.448 1,-1l0,-1.8c7.61,-0.494 13.705,-6.588 14.2,-14.2l1.8,0c0.552,-0 1,-0.448 1,-1c-0,-0.552 -0.448,-1 -1,-1l-1.8,0c-0.494,-7.61 -6.588,-13.705 -14.2,-14.2l0,-1.8c0,-0.552 -0.448,-1 -1,-1c-0.552,-0 -1,0.448 -1,1l0,1.8Zm0,2.005c-6.507,0.487 -11.708,5.688 -12.195,12.195l1.195,0c0.552,-0 1,0.448 1,1c0,0.552 -0.448,1 -1,1l-1.195,0c0.487,6.507 5.688,11.708 12.195,12.195l0,-1.195c0,-0.552 0.448,-1 1,-1c0.552,0 1,0.448 1,1l0,1.195c6.507,-0.487 11.708,-5.688 12.195,-12.195l-1.195,0c-0.552,-0 -1,-0.448 -1,-1c0,-0.552 0.448,-1 1,-1l1.195,0c-0.487,-6.507 -5.688,-11.708 -12.195,-12.195l0,1.195c0,0.552 -0.448,1 -1,1c-0.552,0 -1,-0.448 -1,-1l0,-1.195Z"/><path d="M16,29c0,-2.76 2.24,-5 5,-5c2.76,-0 5,2.24 5,5c0,0.552 0.448,1 1,1c0.552,0 1,-0.448 1,-1c0,-3.863 -3.137,-7 -7,-7c-3.863,-0 -7,3.137 -7,7c0,0.552 0.448,1 1,1c0.552,0 1,-0.448 1,-1Z"/><path d="M21,13c-2.208,-0 -4,1.792 -4,4c0,2.208 1.792,4 4,4c2.208,-0 4,-1.792 4,-4c0,-2.208 -1.792,-4 -4,-4Zm0,2c1.104,-0 2,0.896 2,2c0,1.104 -0.896,2 -2,2c-1.104,-0 -2,-0.896 -2,-2c0,-1.104 0.896,-2 2,-2Z"/></svg>